<svg width="56.000000" height="56.000000" viewBox="0 0 56 56" fill="none" xmlns="http://www.w3.org/2000/svg" xmlns:xlink="http://www.w3.org/1999/xlink">
	<desc>
			Created with Pixso.
	</desc>
	<defs>
		<clipPath id="clip3_421">
			<rect id="icon-typescript" width="56.000000" height="56.000000" fill="white" fill-opacity="0"/>
		</clipPath>
	</defs>
	<rect id="icon-typescript" width="56.000000" height="56.000000" fill="#FFFFFF" fill-opacity="0"/>
	<g clip-path="url(#clip3_421)">
		<path id="Vector" d="M2.62 0L53.37 0C54.82 0 56 1.17 56 2.62L56 53.37C56 54.82 54.82 56 53.37 56L2.62 56C1.17 56 0 54.82 0 53.37L0 2.62C0 1.17 1.17 0 2.62 0Z" fill="#FFFFFF" fill-opacity="1.000000" fill-rule="evenodd"/>
		<path id="Vector" d="M32.48 43.51L32.48 49.65C33.48 50.16 34.65 50.54 36.01 50.8C37.37 51.05 38.8 51.18 40.3 51.18C41.77 51.18 43.16 51.04 44.48 50.76C45.8 50.48 46.96 50.02 47.95 49.37C48.95 48.72 49.73 47.88 50.31 46.84C50.89 45.8 51.18 44.51 51.18 42.98C51.18 41.86 51.02 40.89 50.69 40.05C50.35 39.21 49.88 38.47 49.25 37.82C48.63 37.17 47.88 36.58 47.01 36.06C46.13 35.54 45.15 35.06 44.05 34.6C43.25 34.26 42.53 33.94 41.89 33.63C41.25 33.31 40.71 32.99 40.27 32.67C39.82 32.34 39.48 32 39.23 31.63C38.99 31.27 38.87 30.86 38.87 30.4C38.87 29.97 38.98 29.59 39.2 29.26C39.41 28.92 39.72 28.63 40.11 28.38C40.51 28.14 40.99 27.95 41.57 27.82C42.14 27.68 42.78 27.62 43.48 27.62C43.99 27.62 44.53 27.65 45.09 27.73C45.66 27.81 46.23 27.93 46.8 28.09C47.38 28.25 47.94 28.45 48.48 28.69C49.02 28.93 49.52 29.21 49.98 29.53L49.98 23.8C49.05 23.44 48.03 23.18 46.93 23C45.83 22.83 44.56 22.75 43.13 22.75C41.68 22.75 40.3 22.9 39 23.21C37.7 23.53 36.56 24.02 35.57 24.68C34.58 25.35 33.8 26.19 33.23 27.22C32.66 28.25 32.37 29.48 32.37 30.91C32.37 32.74 32.9 34.3 33.95 35.59C35 36.88 36.6 37.98 38.74 38.87C39.58 39.22 40.36 39.56 41.09 39.89C41.81 40.22 42.44 40.57 42.97 40.92C43.5 41.28 43.92 41.67 44.22 42.09C44.53 42.52 44.68 42.99 44.68 43.53C44.68 43.93 44.59 44.3 44.4 44.63C44.2 44.97 43.91 45.27 43.53 45.52C43.14 45.77 42.65 45.96 42.07 46.1C41.49 46.24 40.81 46.31 40.04 46.31C38.71 46.31 37.4 46.08 36.1 45.61C34.8 45.15 33.59 44.45 32.48 43.51ZM22.18 28.24L30.18 28.24L30.18 23.18L7.87 23.18L7.87 28.24L15.84 28.24L15.84 50.75L22.18 50.75L22.18 28.24Z" fill="#000000" fill-opacity="1.000000" fill-rule="evenodd"/>
	</g>
</svg>
