<svg width="56.000000" height="56.000000" viewBox="0 0 56 56" fill="none" xmlns="http://www.w3.org/2000/svg" xmlns:xlink="http://www.w3.org/1999/xlink">
	<desc>
			Created with Pixso.
	</desc>
	<defs>
		<clipPath id="clip3_380">
			<rect id="icon-sass" width="56.000000" height="56.000000" fill="white" fill-opacity="0"/>
		</clipPath>
	</defs>
	<rect id="icon-sass" width="56.000000" height="56.000000" fill="#FFFFFF" fill-opacity="0"/>
	<g clip-path="url(#clip3_380)">
		<path id="Vector" d="M46.51 30.28C44.71 30.29 43.16 30.72 41.86 31.36C41.38 30.41 40.9 29.57 40.82 28.95C40.72 28.22 40.61 27.79 40.73 26.93C40.84 26.06 41.34 24.84 41.33 24.74C41.33 24.65 41.22 24.21 40.19 24.2C39.15 24.2 38.27 24.4 38.16 24.68C38.06 24.95 37.86 25.56 37.74 26.21C37.56 27.14 35.67 30.49 34.6 32.24C34.25 31.56 33.95 30.96 33.89 30.48C33.8 29.75 33.69 29.32 33.8 28.46C33.92 27.59 34.42 26.37 34.41 26.27C34.4 26.18 34.3 25.74 33.26 25.73C32.23 25.73 31.34 25.93 31.24 26.21C31.13 26.48 31.02 27.12 30.81 27.74C30.6 28.35 28.09 33.94 27.44 35.38C27.1 36.12 26.81 36.71 26.61 37.12L26.61 37.11C26.61 37.11 26.59 37.14 26.57 37.19C26.4 37.53 26.29 37.72 26.29 37.72C26.29 37.72 26.29 37.72 26.3 37.73C26.16 37.98 26.01 38.22 25.93 38.22C25.88 38.22 25.78 37.54 25.95 36.62C26.33 34.68 27.22 31.66 27.21 31.56C27.21 31.5 27.38 30.98 26.63 30.7C25.9 30.44 25.64 30.88 25.57 30.88C25.51 30.88 25.46 31.04 25.46 31.04C25.46 31.04 26.27 27.64 23.91 27.64C22.43 27.64 20.38 29.26 19.37 30.73C18.74 31.08 17.37 31.82 15.93 32.62C15.37 32.92 14.8 33.23 14.27 33.53C14.23 33.49 14.19 33.45 14.15 33.41C11.29 30.35 5.98 28.18 6.21 24.07C6.29 22.57 6.81 18.63 16.4 13.86C24.25 9.94 30.54 11.02 31.62 13.41C33.17 16.82 28.26 23.15 20.11 24.07C17 24.42 15.36 23.21 14.96 22.76C14.53 22.29 14.47 22.27 14.31 22.36C14.05 22.5 14.21 22.92 14.31 23.17C14.55 23.8 15.55 24.93 17.25 25.49C18.75 25.98 22.4 26.25 26.81 24.54C31.75 22.63 35.61 17.31 34.48 12.87C33.32 8.35 25.83 6.86 18.74 9.38C14.51 10.88 9.94 13.24 6.65 16.31C2.74 19.96 2.12 23.15 2.38 24.47C3.29 29.2 9.8 32.27 12.41 34.55C12.28 34.62 12.16 34.69 12.05 34.75C10.74 35.4 5.78 37.99 4.54 40.74C3.13 43.85 4.76 46.08 5.84 46.38C9.19 47.31 12.62 45.64 14.47 42.88C16.32 40.13 16.09 36.55 15.24 34.91C15.23 34.89 15.22 34.87 15.21 34.85C15.55 34.65 15.89 34.45 16.23 34.25C16.9 33.86 17.55 33.49 18.12 33.18C17.8 34.05 17.57 35.09 17.45 36.6C17.3 38.36 18.03 40.65 18.98 41.54C19.39 41.94 19.9 41.95 20.21 41.95C21.32 41.95 21.82 41.03 22.37 39.95C23.05 38.62 23.65 37.07 23.65 37.07C23.65 37.07 22.9 41.25 24.96 41.25C25.71 41.25 26.47 40.28 26.8 39.78C26.8 39.79 26.8 39.79 26.8 39.79C26.8 39.79 26.82 39.76 26.86 39.69C26.94 39.57 26.98 39.5 26.98 39.5C26.98 39.5 26.99 39.49 26.99 39.48C27.29 38.95 27.96 37.76 28.96 35.79C30.26 33.24 31.5 30.05 31.5 30.05C31.5 30.05 31.62 30.83 32 32.12C32.22 32.88 32.7 33.72 33.07 34.52C32.77 34.94 32.58 35.18 32.58 35.18C32.58 35.18 32.59 35.19 32.59 35.19C32.35 35.51 32.08 35.86 31.8 36.19C30.77 37.41 29.55 38.81 29.39 39.21C29.2 39.68 29.24 40.03 29.62 40.31C29.89 40.51 30.37 40.55 30.88 40.51C31.8 40.45 32.44 40.22 32.76 40.08C33.26 39.91 33.84 39.63 34.38 39.23C35.39 38.49 35.99 37.44 35.94 36.04C35.9 35.26 35.66 34.5 35.35 33.78C35.44 33.65 35.53 33.52 35.62 33.38C37.2 31.07 38.43 28.52 38.43 28.52C38.43 28.52 38.55 29.3 38.93 30.59C39.12 31.25 39.5 31.96 39.84 32.66C38.35 33.87 37.43 35.27 37.11 36.19C36.51 37.9 36.98 38.67 37.85 38.85C38.24 38.93 38.8 38.75 39.22 38.57C39.74 38.4 40.37 38.11 40.95 37.68C41.96 36.94 42.92 35.91 42.86 34.51C42.84 33.87 42.66 33.24 42.43 32.63C43.69 32.11 45.33 31.81 47.41 32.06C51.87 32.58 52.75 35.36 52.58 36.53C52.41 37.7 51.48 38.34 51.16 38.53C50.85 38.73 50.75 38.79 50.78 38.94C50.82 39.15 50.96 39.14 51.23 39.09C51.6 39.03 53.57 38.15 53.66 35.99C53.77 33.26 51.15 30.25 46.51 30.28ZM12.09 41.88C10.61 43.49 8.55 44.1 7.66 43.59C6.71 43.03 7.08 40.66 8.9 38.95C10.01 37.9 11.43 36.94 12.38 36.35C12.6 36.22 12.91 36.03 13.3 35.8C13.36 35.76 13.4 35.74 13.4 35.74L13.4 35.74C13.47 35.7 13.55 35.65 13.63 35.6C14.29 38.04 13.65 40.19 12.09 41.88ZM22.87 34.56C22.35 35.81 21.27 39.02 20.62 38.85C20.05 38.7 19.71 36.26 20.51 33.86C20.91 32.65 21.76 31.2 22.26 30.64C23.07 29.74 23.96 29.44 24.17 29.81C24.45 30.28 23.19 33.77 22.87 34.56ZM31.77 38.8C31.55 38.92 31.35 38.99 31.26 38.93C31.19 38.89 31.35 38.74 31.35 38.74C31.35 38.74 32.46 37.54 32.9 37C33.15 36.68 33.45 36.3 33.77 35.88C33.77 35.93 33.77 35.97 33.77 36.01C33.77 37.44 32.39 38.41 31.77 38.8ZM38.62 37.24C38.46 37.12 38.49 36.75 39.02 35.58C39.23 35.12 39.72 34.35 40.55 33.61C40.65 33.92 40.7 34.21 40.7 34.48C40.69 36.28 39.4 36.96 38.62 37.24Z" fill="#000000" fill-opacity="1.000000" fill-rule="nonzero"/>
	</g>
</svg>
