<svg width="56.000000" height="56.000000" viewBox="0 0 56 56" fill="none" xmlns="http://www.w3.org/2000/svg" xmlns:xlink="http://www.w3.org/1999/xlink">
	<desc>
			Created with Pixso.
	</desc>
	<defs>
		<clipPath id="clip3_407">
			<rect id="icon-nest" width="56.000000" height="56.000000" fill="white" fill-opacity="0"/>
		</clipPath>
	</defs>
	<rect id="icon-nest" width="56.000000" height="56.000000" fill="#FFFFFF" fill-opacity="0"/>
	<g clip-path="url(#clip3_407)">
		<path id="Vector" d="M32.45 0.92C32.07 0.92 31.71 1.01 31.38 1.12C32.08 1.6 32.46 2.24 32.65 2.96C32.67 3.06 32.7 3.13 32.71 3.23C32.72 3.32 32.74 3.4 32.74 3.49C32.79 4.73 32.42 4.89 32.16 5.62C31.77 6.57 31.88 7.59 32.35 8.41C32.39 8.51 32.45 8.63 32.52 8.73C32 5.14 34.88 4.61 35.42 3.49C35.46 2.51 34.68 1.86 34.06 1.41C33.48 1.04 32.94 0.92 32.45 0.92ZM36.8 1.73C36.74 2.06 36.79 1.97 36.77 2.14C36.76 2.25 36.76 2.4 36.74 2.51C36.72 2.62 36.69 2.74 36.65 2.85C36.62 2.96 36.58 3.08 36.54 3.19C36.48 3.3 36.44 3.4 36.39 3.51C36.35 3.57 36.32 3.63 36.28 3.68C36.25 3.73 36.22 3.77 36.2 3.81C36.13 3.91 36.06 4.01 35.99 4.1C35.91 4.18 35.84 4.28 35.75 4.35L35.75 4.36C35.66 4.44 35.58 4.52 35.49 4.59C35.2 4.82 34.87 4.99 34.57 5.2C34.47 5.27 34.38 5.33 34.3 5.41C34.2 5.48 34.12 5.55 34.04 5.64C33.94 5.72 33.87 5.81 33.79 5.91C33.72 5.99 33.64 6.09 33.58 6.19C33.52 6.29 33.45 6.39 33.39 6.49C33.34 6.6 33.3 6.7 33.24 6.81C33.2 6.93 33.16 7.03 33.13 7.14C33.09 7.27 33.07 7.38 33.04 7.49C33.02 7.55 33.02 7.62 33.01 7.68C33 7.73 33 7.79 32.98 7.85C32.98 7.96 32.97 8.09 32.97 8.2C32.97 8.29 32.97 8.37 32.98 8.46C32.98 8.57 33 8.68 33.02 8.81C33.04 8.92 33.07 9.04 33.09 9.15C33.13 9.26 33.16 9.38 33.2 9.49C33.23 9.56 33.27 9.63 33.3 9.69L30.15 8.43C29.62 8.27 29.1 8.13 28.57 8C28.28 7.93 27.99 7.86 27.7 7.79C26.88 7.62 26.05 7.49 25.21 7.41C25.19 7.41 25.17 7.39 25.15 7.39C24.33 7.31 23.52 7.27 22.7 7.27C22.1 7.27 21.49 7.3 20.91 7.34C20.07 7.39 19.24 7.51 18.4 7.65C18.2 7.68 17.99 7.72 17.79 7.76C17.36 7.85 16.95 7.95 16.56 8.05C16.35 8.1 16.15 8.16 15.94 8.22C15.74 8.3 15.55 8.4 15.35 8.48C15.2 8.56 15.05 8.63 14.9 8.7C14.87 8.71 14.85 8.71 14.83 8.73C14.7 8.8 14.57 8.85 14.45 8.92C14.41 8.94 14.38 8.95 14.36 8.97C14.2 9.04 14.05 9.12 13.93 9.19C13.84 9.23 13.74 9.29 13.66 9.33C13.62 9.36 13.56 9.39 13.53 9.4C13.41 9.48 13.29 9.55 13.18 9.62C13.06 9.69 12.95 9.76 12.85 9.83C12.75 9.9 12.66 9.96 12.58 10.03C12.56 10.04 12.55 10.04 12.54 10.06C12.45 10.11 12.36 10.18 12.28 10.25C12.28 10.25 12.26 10.27 12.25 10.28C12.18 10.34 12.11 10.4 12.04 10.45C12.02 10.47 11.99 10.49 11.96 10.51C11.89 10.57 11.82 10.64 11.76 10.69C11.74 10.72 11.72 10.74 11.7 10.75C11.62 10.83 11.54 10.91 11.46 10.99C11.44 10.99 11.44 11 11.43 11.02C11.35 11.09 11.26 11.17 11.18 11.26C11.17 11.27 11.17 11.29 11.15 11.29C11.09 11.36 11.02 11.43 10.95 11.51C10.92 11.54 10.88 11.57 10.85 11.6C10.79 11.68 10.7 11.77 10.62 11.85C10.61 11.88 10.58 11.9 10.57 11.92C10.46 12.04 10.36 12.15 10.25 12.26C10.24 12.28 10.22 12.29 10.21 12.31C9.99 12.55 9.76 12.79 9.51 13C9.27 13.23 9.01 13.44 8.75 13.62C8.47 13.82 8.21 13.99 7.93 14.16C7.65 14.32 7.37 14.46 7.07 14.59C6.78 14.71 6.48 14.83 6.18 14.93C5.6 15.05 5.01 15.29 4.51 15.34C4.4 15.34 4.28 15.37 4.17 15.38C4.04 15.41 3.93 15.44 3.82 15.46C3.71 15.51 3.6 15.55 3.5 15.59C3.39 15.63 3.28 15.69 3.17 15.75C3.07 15.82 2.96 15.88 2.87 15.95C2.77 16.02 2.67 16.1 2.59 16.19C2.5 16.26 2.4 16.36 2.32 16.44C2.24 16.54 2.16 16.63 2.09 16.72C2.02 16.84 1.94 16.94 1.88 17.05C1.81 17.15 1.74 17.26 1.69 17.38C1.64 17.5 1.58 17.62 1.54 17.74C1.5 17.86 1.46 17.98 1.42 18.11C1.39 18.23 1.36 18.34 1.35 18.45C1.35 18.47 1.33 18.48 1.33 18.49C1.31 18.62 1.31 18.79 1.29 18.88C1.28 18.98 1.27 19.06 1.27 19.16C1.27 19.22 1.27 19.29 1.28 19.34C1.29 19.44 1.31 19.53 1.33 19.61C1.36 19.7 1.39 19.78 1.43 19.87L1.43 19.88C1.47 19.97 1.53 20.05 1.58 20.14C1.64 20.22 1.69 20.31 1.76 20.39C1.83 20.46 1.91 20.55 1.99 20.62C2.07 20.7 2.16 20.77 2.25 20.84C2.58 21.14 2.66 21.24 3.09 21.47C3.15 21.51 3.22 21.54 3.3 21.58C3.32 21.58 3.33 21.6 3.35 21.6C3.35 21.62 3.35 21.64 3.36 21.67C3.37 21.78 3.4 21.89 3.43 22.01C3.45 22.13 3.5 22.25 3.54 22.35C3.58 22.43 3.61 22.52 3.65 22.6C3.66 22.63 3.67 22.66 3.69 22.67C3.74 22.78 3.8 22.88 3.85 22.98C3.92 23.08 3.99 23.18 4.06 23.28C4.12 23.36 4.21 23.46 4.29 23.55C4.37 23.63 4.45 23.7 4.55 23.79C4.55 23.79 4.56 23.8 4.58 23.8C4.66 23.87 4.74 23.95 4.82 24C4.92 24.07 5.01 24.13 5.12 24.19C5.22 24.24 5.33 24.3 5.44 24.34C5.52 24.38 5.62 24.41 5.71 24.44C5.73 24.46 5.74 24.46 5.77 24.47C5.82 24.48 5.89 24.5 5.94 24.51C5.9 25.28 5.89 26 6 26.25C6.12 26.54 6.72 25.67 7.33 24.68C7.24 25.66 7.19 26.81 7.33 27.15C7.48 27.5 8.3 26.39 9.01 25.18C18.7 22.86 27.55 29.79 28.48 39.59C28.31 38.06 26.49 37.21 25.65 37.42C25.24 38.47 24.54 39.82 23.42 40.65C23.52 39.72 23.48 38.75 23.29 37.82C22.99 39.12 22.4 40.34 21.59 41.39C20.29 41.49 18.99 40.84 18.31 39.86C18.25 39.82 18.24 39.73 18.2 39.68C18.16 39.58 18.12 39.48 18.09 39.38C18.05 39.28 18.02 39.18 18.01 39.08C17.99 38.98 17.99 38.88 17.99 38.77C17.99 38.7 17.99 38.63 17.99 38.56C18.01 38.46 18.03 38.36 18.06 38.26C18.09 38.16 18.12 38.06 18.16 37.96C18.21 37.86 18.25 37.76 18.32 37.66C18.55 36.99 18.55 36.43 18.13 36.11C18.05 36.05 17.97 36.01 17.87 35.97C17.82 35.95 17.75 35.92 17.69 35.91C17.65 35.9 17.62 35.88 17.58 35.87C17.49 35.84 17.39 35.81 17.3 35.8C17.2 35.77 17.1 35.75 17.01 35.75C16.91 35.74 16.8 35.73 16.71 35.73C16.64 35.73 16.57 35.74 16.5 35.74C16.39 35.74 16.3 35.75 16.2 35.78C16.11 35.8 16.01 35.81 15.91 35.84C15.82 35.87 15.72 35.9 15.63 35.94C15.53 35.98 15.45 36.02 15.35 36.07C15.27 36.11 15.19 36.16 15.09 36.21C11.91 38.36 13.81 43.4 15.98 44.86C15.16 45.01 14.33 45.2 14.1 45.38C14.08 45.4 14.07 45.41 14.07 45.41C14.66 45.78 15.27 46.09 15.91 46.36C16.79 46.66 17.72 46.92 18.13 47.04L18.13 47.05C19.27 47.29 20.41 47.38 21.58 47.31C27.64 46.87 32.6 42.1 33.5 35.81C33.53 35.94 33.56 36.05 33.59 36.18C33.63 36.43 33.68 36.7 33.71 36.97L33.71 36.99C33.74 37.11 33.75 37.24 33.76 37.35L33.76 37.41C33.78 37.54 33.79 37.66 33.79 37.78C33.8 37.93 33.82 38.09 33.82 38.25L33.82 38.47C33.82 38.54 33.83 38.63 33.83 38.7C33.83 38.78 33.82 38.87 33.82 38.95L33.82 39.15C33.82 39.25 33.8 39.34 33.8 39.43C33.8 39.49 33.8 39.55 33.79 39.62C33.79 39.72 33.78 39.82 33.78 39.93C33.76 39.97 33.76 40.02 33.76 40.06C33.75 40.17 33.74 40.27 33.72 40.38C33.72 40.43 33.72 40.47 33.71 40.51C33.69 40.65 33.67 40.78 33.65 40.92L33.65 40.94L33.65 40.95C33.63 41.08 33.6 41.22 33.57 41.35L33.57 41.39C33.54 41.52 33.52 41.64 33.49 41.77C33.49 41.79 33.48 41.81 33.48 41.83C33.45 41.96 33.42 42.08 33.38 42.21L33.38 42.25C33.34 42.39 33.3 42.52 33.27 42.65C33.26 42.66 33.26 42.68 33.26 42.68C33.22 42.82 33.17 42.96 33.13 43.1C33.08 43.24 33.04 43.37 32.98 43.51C32.93 43.65 32.89 43.8 32.83 43.92C32.78 44.06 32.72 44.19 32.67 44.33L32.65 44.33C32.6 44.46 32.55 44.6 32.48 44.73C32.46 44.77 32.45 44.8 32.44 44.83C32.42 44.84 32.42 44.86 32.41 44.87C31.52 46.73 30.21 48.35 28.57 49.63C28.46 49.7 28.35 49.78 28.24 49.87C28.21 49.9 28.17 49.91 28.14 49.94C28.05 50.01 27.95 50.08 27.84 50.15L27.88 50.24L27.9 50.24C28.09 50.21 28.28 50.18 28.47 50.15L28.48 50.15C28.84 50.1 29.19 50.03 29.55 49.95C29.65 49.94 29.76 49.91 29.85 49.88C29.92 49.87 29.97 49.86 30.04 49.84C30.14 49.83 30.23 49.8 30.33 49.78C30.41 49.76 30.49 49.74 30.58 49.71C31.94 49.37 33.27 48.91 34.54 48.35C32.37 51.43 29.45 53.9 26.05 55.53C27.62 55.42 29.19 55.15 30.71 54.7C36.22 53.01 40.86 49.18 43.64 44.01C43.08 47.28 41.82 50.39 39.96 53.11C41.28 52.21 42.5 51.16 43.61 49.97C46.67 46.66 48.68 42.45 49.37 37.93C49.83 40.17 49.97 42.48 49.76 44.76C59.64 30.5 50.59 15.72 46.8 11.83C46.78 11.8 46.77 11.78 46.77 11.76C46.76 11.77 46.76 11.77 46.76 11.78C46.76 11.77 46.76 11.77 46.74 11.76C46.74 11.93 46.73 12.1 46.71 12.26C46.67 12.59 46.63 12.9 46.58 13.21C46.51 13.53 46.43 13.84 46.35 14.15C46.25 14.45 46.14 14.76 46.02 15.05C45.89 15.34 45.76 15.63 45.61 15.92C45.46 16.19 45.29 16.47 45.11 16.72C44.94 16.99 44.75 17.25 44.55 17.49C44.35 17.74 44.13 17.97 43.91 18.2C43.77 18.32 43.65 18.44 43.51 18.55C43.4 18.65 43.31 18.74 43.2 18.83C42.95 19.03 42.71 19.22 42.43 19.39C42.17 19.56 41.9 19.73 41.63 19.87C41.34 20.01 41.05 20.14 40.77 20.26C40.48 20.38 40.18 20.48 39.88 20.56C39.58 20.65 39.26 20.72 38.96 20.77C38.65 20.83 38.33 20.86 38.03 20.89C37.81 20.9 37.59 20.92 37.37 20.92C37.06 20.92 36.74 20.89 36.44 20.86C36.13 20.83 35.81 20.79 35.51 20.72C35.2 20.66 34.9 20.58 34.6 20.48L34.58 20.48C34.88 20.45 35.18 20.42 35.49 20.36C35.8 20.31 36.1 20.24 36.4 20.15C36.7 20.07 37 19.97 37.29 19.85C37.59 19.74 37.88 19.6 38.15 19.46C38.44 19.32 38.7 19.16 38.97 18.99C39.23 18.81 39.49 18.62 39.74 18.42C39.99 18.23 40.22 18.01 40.44 17.79C40.67 17.57 40.87 17.33 41.08 17.09C41.28 16.84 41.48 16.58 41.65 16.33C41.68 16.29 41.71 16.23 41.74 16.19C41.87 15.96 42.01 15.73 42.13 15.51C42.28 15.22 42.42 14.94 42.54 14.64C42.67 14.35 42.78 14.05 42.87 13.74C42.97 13.44 43.04 13.13 43.1 12.82C43.16 12.49 43.21 12.18 43.24 11.87C43.27 11.54 43.3 11.22 43.3 10.91C43.3 10.68 43.28 10.45 43.27 10.23C43.24 9.9 43.2 9.59 43.16 9.28C43.1 8.95 43.04 8.64 42.95 8.33C42.86 8.03 42.76 7.72 42.65 7.42C42.54 7.13 42.41 6.83 42.27 6.54C42.12 6.26 41.97 5.98 41.8 5.71C41.63 5.44 41.45 5.19 41.26 4.93C41.05 4.69 40.85 4.45 40.63 4.21C40.52 4.1 40.4 3.97 40.27 3.85C39.66 3.36 39.01 2.89 38.37 2.47C38.28 2.41 38.19 2.37 38.1 2.33C37.65 2.03 37.22 1.87 36.8 1.73Z" fill="#000000" fill-opacity="1.000000" fill-rule="evenodd"/>
	</g>
</svg>
