<svg width="56.000000" height="56.000000" viewBox="0 0 56 56" fill="none" xmlns="http://www.w3.org/2000/svg" xmlns:xlink="http://www.w3.org/1999/xlink">
	<desc>
			Created with Pixso.
	</desc>
	<defs>
		<clipPath id="clip3_377">
			<rect id="icon-express" width="56.000000" height="56.000000" fill="white" fill-opacity="0"/>
		</clipPath>
	</defs>
	<rect id="icon-express" width="56.000000" height="56.000000" fill="#FFFFFF" fill-opacity="0"/>
	<g clip-path="url(#clip3_377)">
		<path id="Vector" d="M56 43.39C53.96 43.9 52.7 43.41 51.57 41.71L43.53 30.59L42.37 29.05L32.98 41.75C31.9 43.28 30.78 43.94 28.78 43.4L40.8 27.26L29.61 12.68C31.53 12.31 32.86 12.5 34.04 14.22L42.38 25.49L50.78 14.29C51.86 12.76 53.01 12.18 54.95 12.74L50.61 18.49L44.73 26.15C44.03 27.03 44.12 27.62 44.77 28.47L56 43.39ZM0.01 26.99L0.99 22.16C3.67 12.58 14.64 8.6 22.21 14.52C26.63 18 27.73 22.92 27.51 28.43L2.58 28.43C2.21 38.36 9.35 44.34 18.46 41.29C21.65 40.22 23.53 37.71 24.47 34.59C24.95 33.02 25.74 32.77 27.22 33.22C26.46 37.13 24.77 40.4 21.18 42.45C15.82 45.51 8.17 44.52 4.14 40.26C1.75 37.8 0.75 34.67 0.31 31.32C0.24 30.77 0.1 30.24 0 29.71C0 28.8 0.01 27.9 0.01 26.99L0.01 26.99ZM2.63 26.33L25.16 26.33C25.01 19.15 20.54 14.06 14.44 14.01C7.73 13.96 2.92 18.94 2.63 26.33Z" fill="#000000" fill-opacity="1.000000" fill-rule="nonzero"/>
	</g>
</svg>
