<svg width="56.000000" height="56.000000" viewBox="0 0 56 56" fill="none" xmlns="http://www.w3.org/2000/svg" xmlns:xlink="http://www.w3.org/1999/xlink">
	<desc>
			Created with Pixso.
	</desc>
	<defs>
		<clipPath id="clip3_390">
			<rect id="icon-storybook" width="56.000000" height="56.000000" fill="white" fill-opacity="0"/>
		</clipPath>
	</defs>
	<rect id="icon-storybook" width="56.000000" height="56.000000" fill="#FFFFFF" fill-opacity="0"/>
	<g clip-path="url(#clip3_390)">
		<path id="Vector" d="M9.85 48.65L8.33 8.2C8.28 6.86 9.31 5.73 10.64 5.65L37.6 3.97L39.66 4.66L42.34 3.67L45.04 3.5C46.4 3.41 47.57 4.44 47.66 5.8C47.66 5.85 47.66 5.91 47.66 5.96L47.66 50.03C47.66 51.39 46.55 52.5 45.19 52.5C45.16 52.5 45.12 52.5 45.09 52.49L12.2 51.02C10.92 50.96 9.9 49.93 9.85 48.65Z" fill="#000000" fill-opacity="1.000000" fill-rule="evenodd"/>
		<path id="Vector" d="M42.34 3.67L37.6 3.96L37.37 9.52C37.37 9.72 37.52 9.89 37.73 9.9C37.81 9.9 37.89 9.88 37.96 9.83L40.12 8.19L41.94 9.63C42.1 9.75 42.33 9.72 42.46 9.57C42.51 9.5 42.54 9.41 42.54 9.32L42.34 3.67L42.34 3.67ZM38.65 22.26C37.79 22.94 31.33 23.4 31.33 22.44C31.47 18.78 29.83 18.62 28.92 18.62C28.06 18.62 26.6 18.88 26.6 20.84C26.6 22.84 28.73 23.96 31.22 25.29C34.77 27.17 39.06 29.44 39.06 35.17C39.06 40.65 34.61 43.68 28.92 43.68C23.05 43.68 17.93 41.31 18.5 33.08C18.73 32.11 26.19 32.34 26.19 33.08C26.1 36.47 26.87 37.47 28.83 37.47C30.33 37.47 31.01 36.64 31.01 35.25C31.01 33.14 28.8 31.9 26.25 30.47C22.8 28.53 18.73 26.25 18.73 21.01C18.73 15.79 22.33 12.31 28.74 12.31C35.15 12.31 38.65 15.74 38.65 22.26Z" fill="#FFFFFF" fill-opacity="1.000000" fill-rule="evenodd"/>
	</g>
</svg>
