<svg width="56.000000" height="56.000000" viewBox="0 0 56 56" fill="none" xmlns="http://www.w3.org/2000/svg" xmlns:xlink="http://www.w3.org/1999/xlink">
	<desc>
			Created with Pixso.
	</desc>
	<defs>
		<clipPath id="clip3_410">
			<rect id="icon-git" width="56.000000" height="56.000000" fill="white" fill-opacity="0"/>
		</clipPath>
	</defs>
	<rect id="icon-git" width="56.000000" height="56.000000" fill="#FFFFFF" fill-opacity="0"/>
	<g clip-path="url(#clip3_410)">
		<path id="Vector" d="M49.23 25.78L30.21 6.76C29.63 6.18 28.81 5.83 28 5.83C27.18 5.83 26.36 6.18 25.78 6.76L21.7 10.85L26.48 15.63C26.95 15.4 27.41 15.28 28 15.28C29.98 15.28 31.5 16.79 31.5 18.78C31.5 19.36 31.38 19.83 31.15 20.29L35.81 24.96C36.28 24.73 36.75 24.61 37.33 24.61C39.31 24.61 40.83 26.13 40.83 28.11C40.83 30.1 39.31 31.61 37.33 31.61C35.34 31.61 33.83 30.1 33.83 28.11C33.83 27.53 33.95 27.06 34.18 26.6L29.51 21.93C29.4 21.93 29.28 22.05 29.16 22.05L29.16 34.18C30.56 34.65 31.5 35.93 31.5 37.45C31.5 39.43 29.98 40.95 28 40.95C26.01 40.95 24.5 39.43 24.5 37.45C24.5 35.93 25.43 34.65 26.83 34.18L26.83 21.93C25.43 21.46 24.5 20.18 24.5 18.66C24.5 18.08 24.61 17.61 24.85 17.15L20.06 12.36L6.76 25.78C6.18 26.36 5.83 27.18 5.83 28C5.83 28.81 6.18 29.63 6.76 30.21L25.78 49.23C26.36 49.81 27.18 50.16 28 50.16C28.81 50.16 29.63 49.81 30.21 49.23L49.23 30.21C49.81 29.63 50.16 28.81 50.16 28C50.16 27.18 49.81 26.36 49.23 25.78Z" fill="#000000" fill-opacity="1.000000" fill-rule="nonzero"/>
	</g>
</svg>
